<?xml version="1.0" encoding="utf-8"?>
<!-- Generator: Adobe Illustrator 16.0.0, SVG Export Plug-In . SVG Version: 6.00 Build 0)  -->
<!DOCTYPE svg PUBLIC "-//W3C//DTD SVG 1.1//EN" "http://www.w3.org/Graphics/SVG/1.1/DTD/svg11.dtd">
<svg version="1.1" id="Layer_1" xmlns="http://www.w3.org/2000/svg" xmlns:xlink="http://www.w3.org/1999/xlink" x="0px" y="0px"
	 width="82.041px" height="16px" viewBox="0 0 82.041 16" enable-background="new 0 0 82.041 16" xml:space="preserve">
<g id="etrace_logo" transform="translate(0 0)">
	<path id="Path_5020" d="M13.165,1.695V0h11.957v1.695h-5.1v14.273h-1.769V1.695H13.165z"/>
	<path id="Path_5021" d="M26.807,15.968V0h7.206c1.286-0.123,2.579,0.157,3.7,0.8c0.759,0.742,1.133,1.792,1.014,2.847V6.06
		c0.039,0.693-0.139,1.381-0.51,1.968c-0.374,0.498-0.933,0.823-1.55,0.9c0.641,0.103,1.215,0.454,1.6,0.976
		c0.357,0.687,0.518,1.459,0.462,2.23v3.839h-1.844v-3.292c0.088-0.813-0.104-1.632-0.542-2.322
		c-0.595-0.48-1.359-0.699-2.118-0.605h-5.662v6.22L26.807,15.968z M33.659,1.695h-5.094v6.391h5.094
		c0.9,0.097,1.809-0.075,2.612-0.493c0.464-0.465,0.691-1.116,0.616-1.769V3.958c0.077-0.653-0.144-1.307-0.6-1.78
		C35.477,1.765,34.563,1.597,33.659,1.695z"/>
	<path id="Path_5022" d="M40.479,15.968L46.379,0h2.905l5.931,15.968h-1.823l-1.523-4.086h-8.074l-1.49,4.086H40.479z
		 M44.379,10.306h6.917L48.11,1.695h-0.568L44.379,10.306z"/>
	<path id="Path_5023" d="M56.356,5.34c0-1.997,0.383-3.385,1.146-4.167c0.764-0.781,2.113-1.172,4.047-1.172h1.822
		c1.92,0,3.268,0.337,4.043,1.01c0.867,0.919,1.291,2.171,1.162,3.429v0.681h-1.781V4.692c0.104-0.871-0.158-1.746-0.721-2.418
		c-0.842-0.53-1.838-0.758-2.826-0.649h-1.201c-0.689-0.023-1.38,0.034-2.057,0.173c-0.4,0.1-0.77,0.3-1.072,0.581
		c-0.295,0.283-0.504,0.644-0.6,1.041c-0.146,0.774-0.203,1.563-0.174,2.35v4.44c-0.029,0.783,0.028,1.568,0.174,2.34
		c0.096,0.397,0.305,0.759,0.6,1.041c0.293,0.277,0.652,0.477,1.041,0.582c0.688,0.141,1.389,0.199,2.088,0.173h1.201
		c1.006,0.118,2.021-0.123,2.869-0.681c0.564-0.744,0.82-1.68,0.711-2.607c0-0.2,0-0.346-0.006-0.45
		c-0.004-0.104-0.008-0.2-0.015-0.293h1.769v1.026c0,1.732-0.375,2.938-1.125,3.611c-0.75,0.676-2.109,1.014-4.078,1.017h-1.821
		c-1.933,0-3.282-0.392-4.048-1.173c-0.764-0.782-1.146-2.172-1.145-4.168L56.356,5.34z"/>
	<rect id="Rectangle_41" y="0.005" fill="#E50019" width="11.208" height="1.705"/>
	<rect id="Rectangle_42" y="14.294" fill="#2A559C" width="11.208" height="1.705"/>
	<rect id="Rectangle_43" y="7.132" fill="#00973D" width="11.208" height="1.706"/>
	<rect id="Rectangle_44" x="70.833" y="0.005" fill="#E50019" width="11.208" height="1.705"/>
	<rect id="Rectangle_45" x="70.833" y="14.294" fill="#2A559C" width="11.208" height="1.705"/>
	<rect id="Rectangle_46" x="70.833" y="7.132" fill="#00973D" width="11.208" height="1.706"/>
</g>
</svg>
